<svg width="1114" height="341" viewBox="0 0 1114 341" fill="none" xmlns="http://www.w3.org/2000/svg">
<path d="M926.301 66.6698C926.301 70.9009 922.875 74.3311 918.65 74.3311C914.425 74.3311 911 70.9009 911 66.6698C911 62.4388 914.425 59.0085 918.65 59.0085C922.862 59.0085 926.301 62.4388 926.301 66.6698Z" stroke="#00E75B" stroke-width="3" stroke-miterlimit="10" stroke-linecap="round" stroke-linejoin="round"/>
<path d="M924.182 71.9551L929.579 77.3731" stroke="#00E75B" stroke-width="3" stroke-miterlimit="10" stroke-linecap="round" stroke-linejoin="round"/>
<path d="M372 22.0063L380.049 30.0667" stroke="#00E75B" stroke-width="3" stroke-miterlimit="10" stroke-linecap="round" stroke-linejoin="round"/>
<path d="M380.049 22.0063L372 30.0667" stroke="#00E75B" stroke-width="3" stroke-miterlimit="10" stroke-linecap="round" stroke-linejoin="round"/>
<path d="M1104 235.02L1112.05 243.08" stroke="#00E75B" stroke-width="3" stroke-miterlimit="10" stroke-linecap="round" stroke-linejoin="round"/>
<path d="M1112.05 235.02L1104 243.08" stroke="#00E75B" stroke-width="3" stroke-miterlimit="10" stroke-linecap="round" stroke-linejoin="round"/>
<path d="M823 205.018L831.049 213.078" stroke="#00E75B" stroke-width="3" stroke-miterlimit="10" stroke-linecap="round" stroke-linejoin="round"/>
<path d="M831.049 205.018L823 213.078" stroke="#00E75B" stroke-width="3" stroke-miterlimit="10" stroke-linecap="round" stroke-linejoin="round"/>
<path d="M331.389 251.401V262.8" stroke="#00E75B" stroke-width="3" stroke-miterlimit="10" stroke-linecap="round" stroke-linejoin="round"/>
<path d="M337.095 257.099H325.699" stroke="#00E75B" stroke-width="3" stroke-miterlimit="10" stroke-linecap="round" stroke-linejoin="round"/>
<path d="M202.835 101.938C202.835 105.755 199.742 108.865 195.917 108.865C192.105 108.865 189 105.769 189 101.938C189 98.1209 192.092 95.011 195.917 95.011C199.742 95.0243 202.835 98.1209 202.835 101.938Z" stroke="#00E75B" stroke-width="3" stroke-miterlimit="10" stroke-linecap="round" stroke-linejoin="round"/>
<path d="M15.8346 234.947C15.8346 238.764 12.7424 241.874 8.91728 241.874C5.10545 241.874 2 238.777 2 234.947C2 231.129 5.09212 228.02 8.91728 228.02C12.7424 228.033 15.8346 231.129 15.8346 234.947Z" stroke="#00E75B" stroke-width="3" stroke-miterlimit="10" stroke-linecap="round" stroke-linejoin="round"/>
<path d="M1082.83 -5.06866C1082.83 -1.25136 1079.74 1.85854 1075.92 1.85854C1072.11 1.85854 1069 -1.23801 1069 -5.06866C1069 -8.88595 1072.09 -11.9958 1075.92 -11.9958C1079.74 -11.9825 1082.83 -8.88595 1082.83 -5.06866Z" stroke="#00E75B" stroke-width="3" stroke-miterlimit="10" stroke-linecap="round" stroke-linejoin="round"/>
<path d="M716.29 331.737C716.29 335.554 713.198 338.664 709.372 338.664C705.561 338.664 702.455 335.567 702.455 331.737C702.455 327.919 705.547 324.809 709.372 324.809C713.198 324.823 716.29 327.919 716.29 331.737Z" stroke="#00E75B" stroke-width="3" stroke-miterlimit="10" stroke-linecap="round" stroke-linejoin="round"/>
<path d="M114.506 202.035C115.889 202.035 117.011 200.912 117.011 199.527C117.011 198.141 115.889 197.018 114.506 197.018C113.122 197.018 112 198.141 112 199.527C112 200.912 113.122 202.035 114.506 202.035Z" fill="#A43131"/>
<path d="M132.005 202.035C133.388 202.035 134.51 200.912 134.51 199.526C134.51 198.141 133.388 197.018 132.005 197.018C130.621 197.018 129.5 198.141 129.5 199.526C129.5 200.912 130.621 202.035 132.005 202.035Z" fill="#A43131"/>
<path d="M149.492 202.035C150.875 202.035 151.997 200.912 151.997 199.526C151.997 198.141 150.875 197.018 149.492 197.018C148.108 197.018 146.986 198.141 146.986 199.526C146.986 200.912 148.108 202.035 149.492 202.035Z" fill="#A43131"/>
<path d="M166.992 202.035C168.375 202.035 169.497 200.912 169.497 199.526C169.497 198.141 168.375 197.018 166.992 197.018C165.608 197.018 164.486 198.141 164.486 199.526C164.486 200.912 165.608 202.035 166.992 202.035Z" fill="#A43131"/>
<path d="M184.478 202.035C185.862 202.035 186.983 200.912 186.983 199.526C186.983 198.141 185.862 197.018 184.478 197.018C183.094 197.018 181.973 198.141 181.973 199.526C181.973 200.912 183.094 202.035 184.478 202.035Z" fill="#A43131"/>
<path d="M201.978 202.035C203.362 202.035 204.483 200.912 204.483 199.526C204.483 198.141 203.362 197.018 201.978 197.018C200.594 197.018 199.473 198.141 199.473 199.526C199.473 200.912 200.594 202.035 201.978 202.035Z" fill="#A43131"/>
<path d="M114.505 219.547C115.889 219.547 117.01 218.424 117.01 217.039C117.01 215.653 115.889 214.53 114.505 214.53C113.122 214.53 112 215.653 112 217.039C112 218.424 113.122 219.547 114.505 219.547Z" fill="#A43131"/>
<path d="M132.005 219.547C133.389 219.547 134.511 218.424 134.511 217.039C134.511 215.653 133.389 214.53 132.005 214.53C130.622 214.53 129.5 215.653 129.5 217.039C129.5 218.424 130.622 219.547 132.005 219.547Z" fill="#A43131"/>
<path d="M149.492 219.547C150.876 219.547 151.997 218.424 151.997 217.039C151.997 215.653 150.876 214.53 149.492 214.53C148.108 214.53 146.987 215.653 146.987 217.039C146.987 218.424 148.108 219.547 149.492 219.547Z" fill="#A43131"/>
<path d="M166.992 219.547C168.375 219.547 169.497 218.424 169.497 217.039C169.497 215.653 168.375 214.53 166.992 214.53C165.608 214.53 164.486 215.653 164.486 217.039C164.486 218.424 165.608 219.547 166.992 219.547Z" fill="#A43131"/>
<path d="M184.478 219.547C185.862 219.547 186.983 218.424 186.983 217.039C186.983 215.653 185.862 214.53 184.478 214.53C183.094 214.53 181.973 215.653 181.973 217.039C181.973 218.424 183.094 219.547 184.478 219.547Z" fill="#A43131"/>
<path d="M201.978 219.547C203.362 219.547 204.483 218.424 204.483 217.039C204.483 215.653 203.362 214.53 201.978 214.53C200.594 214.53 199.473 215.653 199.473 217.039C199.473 218.424 200.594 219.547 201.978 219.547Z" fill="#A43131"/>
<path d="M114.505 237.072C115.889 237.072 117.01 235.949 117.01 234.563C117.01 233.178 115.889 232.054 114.505 232.054C113.122 232.054 112 233.178 112 234.563C112 235.949 113.122 237.072 114.505 237.072Z" fill="#A43131"/>
<path d="M132.005 237.072C133.389 237.072 134.511 235.949 134.511 234.563C134.511 233.178 133.389 232.054 132.005 232.054C130.622 232.054 129.5 233.178 129.5 234.563C129.5 235.949 130.622 237.072 132.005 237.072Z" fill="#A43131"/>
<path d="M149.492 237.072C150.876 237.072 151.997 235.949 151.997 234.563C151.997 233.178 150.876 232.054 149.492 232.054C148.108 232.054 146.987 233.178 146.987 234.563C146.987 235.949 148.108 237.072 149.492 237.072Z" fill="#A43131"/>
<path d="M166.992 237.072C168.375 237.072 169.497 235.949 169.497 234.563C169.497 233.178 168.375 232.054 166.992 232.054C165.608 232.054 164.486 233.178 164.486 234.563C164.486 235.949 165.608 237.072 166.992 237.072Z" fill="#A43131"/>
<path d="M184.478 237.072C185.862 237.072 186.983 235.949 186.983 234.563C186.983 233.178 185.862 232.054 184.478 232.054C183.094 232.054 181.973 233.178 181.973 234.563C181.973 235.949 183.094 237.072 184.478 237.072Z" fill="#A43131"/>
<path d="M201.978 237.072C203.362 237.072 204.483 235.949 204.483 234.563C204.483 233.178 203.362 232.054 201.978 232.054C200.594 232.054 199.473 233.178 199.473 234.563C199.473 235.949 200.594 237.072 201.978 237.072Z" fill="#A43131"/>
<path d="M114.505 254.583C115.889 254.583 117.01 253.46 117.01 252.075C117.01 250.689 115.889 249.566 114.505 249.566C113.122 249.566 112 250.689 112 252.075C112 253.46 113.122 254.583 114.505 254.583Z" fill="#A43131"/>
<path d="M132.005 254.583C133.389 254.583 134.511 253.46 134.511 252.075C134.511 250.689 133.389 249.566 132.005 249.566C130.622 249.566 129.5 250.689 129.5 252.075C129.5 253.46 130.622 254.583 132.005 254.583Z" fill="#A43131"/>
<path d="M149.492 254.583C150.876 254.583 151.997 253.46 151.997 252.075C151.997 250.689 150.876 249.566 149.492 249.566C148.108 249.566 146.987 250.689 146.987 252.075C146.987 253.46 148.108 254.583 149.492 254.583Z" fill="#A43131"/>
<path d="M166.992 254.583C168.375 254.583 169.497 253.46 169.497 252.075C169.497 250.689 168.375 249.566 166.992 249.566C165.608 249.566 164.486 250.689 164.486 252.075C164.486 253.46 165.608 254.583 166.992 254.583Z" fill="#A43131"/>
<path d="M184.478 254.583C185.862 254.583 186.983 253.46 186.983 252.075C186.983 250.689 185.862 249.566 184.478 249.566C183.094 249.566 181.973 250.689 181.973 252.075C181.973 253.46 183.094 254.583 184.478 254.583Z" fill="#A43131"/>
<path d="M201.978 254.583C203.362 254.583 204.483 253.46 204.483 252.075C204.483 250.689 203.362 249.566 201.978 249.566C200.594 249.566 199.473 250.689 199.473 252.075C199.473 253.46 200.594 254.583 201.978 254.583Z" fill="#A43131"/>
<path d="M767.506 22.024C768.889 22.024 770.011 20.9007 770.011 19.5152C770.011 18.1296 768.889 17.0063 767.506 17.0063C766.122 17.0063 765 18.1296 765 19.5152C765 20.9007 766.122 22.024 767.506 22.024Z" fill="#A43131"/>
<path d="M784.992 22.0238C786.376 22.0238 787.497 20.9005 787.497 19.5149C787.497 18.1293 786.376 17.0061 784.992 17.0061C783.608 17.0061 782.487 18.1293 782.487 19.5149C782.487 20.9005 783.608 22.0238 784.992 22.0238Z" fill="#A43131"/>
<path d="M802.492 22.0238C803.875 22.0238 804.997 20.9005 804.997 19.5149C804.997 18.1293 803.875 17.0061 802.492 17.0061C801.108 17.0061 799.986 18.1293 799.986 19.5149C799.986 20.9005 801.108 22.0238 802.492 22.0238Z" fill="#A43131"/>
<path d="M767.505 39.5492C768.889 39.5492 770.01 38.4259 770.01 37.0403C770.01 35.6547 768.889 34.5315 767.505 34.5315C766.122 34.5315 765 35.6547 765 37.0403C765 38.4259 766.122 39.5492 767.505 39.5492Z" fill="#A43131"/>
<path d="M784.992 39.5492C786.376 39.5492 787.497 38.4259 787.497 37.0403C787.497 35.6547 786.376 34.5315 784.992 34.5315C783.608 34.5315 782.487 35.6547 782.487 37.0403C782.487 38.4259 783.608 39.5492 784.992 39.5492Z" fill="#A43131"/>
<path d="M802.492 39.5492C803.875 39.5492 804.997 38.4259 804.997 37.0403C804.997 35.6547 803.875 34.5315 802.492 34.5315C801.108 34.5315 799.986 35.6547 799.986 37.0403C799.986 38.4259 801.108 39.5492 802.492 39.5492Z" fill="#A43131"/>
<path d="M1027.99 185.034C1029.37 185.034 1030.5 183.911 1030.5 182.525C1030.5 181.14 1029.37 180.016 1027.99 180.016C1026.61 180.016 1025.49 181.14 1025.49 182.525C1025.49 183.911 1026.61 185.034 1027.99 185.034Z" fill="#A43131"/>
<path d="M1027.99 202.559C1029.38 202.559 1030.5 201.435 1030.5 200.05C1030.5 198.664 1029.38 197.541 1027.99 197.541C1026.61 197.541 1025.49 198.664 1025.49 200.05C1025.49 201.435 1026.61 202.559 1027.99 202.559Z" fill="#A43131"/>
<path d="M1027.99 220.071C1029.38 220.071 1030.5 218.948 1030.5 217.562C1030.5 216.177 1029.38 215.053 1027.99 215.053C1026.61 215.053 1025.49 216.177 1025.49 217.562C1025.49 218.948 1026.61 220.071 1027.99 220.071Z" fill="#A43131"/>
<path d="M1027.99 237.595C1029.38 237.595 1030.5 236.472 1030.5 235.087C1030.5 233.701 1029.38 232.578 1027.99 232.578C1026.61 232.578 1025.49 233.701 1025.49 235.087C1025.49 236.472 1026.61 237.595 1027.99 237.595Z" fill="#A43131"/>
<path d="M1027.99 255.107C1029.38 255.107 1030.5 253.984 1030.5 252.598C1030.5 251.213 1029.38 250.09 1027.99 250.09C1026.61 250.09 1025.49 251.213 1025.49 252.598C1025.49 253.984 1026.61 255.107 1027.99 255.107Z" fill="#A43131"/>
<path d="M1027.99 272.631C1029.38 272.631 1030.5 271.508 1030.5 270.123C1030.5 268.737 1029.38 267.614 1027.99 267.614C1026.61 267.614 1025.49 268.737 1025.49 270.123C1025.49 271.508 1026.61 272.631 1027.99 272.631Z" fill="#A43131"/>
<path d="M1027.99 290.144C1029.38 290.144 1030.5 289.02 1030.5 287.635C1030.5 286.249 1029.38 285.126 1027.99 285.126C1026.61 285.126 1025.49 286.249 1025.49 287.635C1025.49 289.02 1026.61 290.144 1027.99 290.144Z" fill="#A43131"/>
<path d="M1010.49 185.034C1011.88 185.034 1013 183.911 1013 182.525C1013 181.14 1011.88 180.016 1010.49 180.016C1009.11 180.016 1007.99 181.14 1007.99 182.525C1007.99 183.911 1009.11 185.034 1010.49 185.034Z" fill="#A43131"/>
<path d="M1010.49 202.559C1011.88 202.559 1013 201.435 1013 200.05C1013 198.664 1011.88 197.541 1010.49 197.541C1009.11 197.541 1007.99 198.664 1007.99 200.05C1007.99 201.435 1009.11 202.559 1010.49 202.559Z" fill="#A43131"/>
<path d="M1010.49 220.071C1011.88 220.071 1013 218.948 1013 217.562C1013 216.177 1011.88 215.053 1010.49 215.053C1009.11 215.053 1007.99 216.177 1007.99 217.562C1007.99 218.948 1009.11 220.071 1010.49 220.071Z" fill="#A43131"/>
<path d="M1010.49 237.595C1011.88 237.595 1013 236.472 1013 235.087C1013 233.701 1011.88 232.578 1010.49 232.578C1009.11 232.578 1007.99 233.701 1007.99 235.087C1007.99 236.472 1009.11 237.595 1010.49 237.595Z" fill="#A43131"/>
<path d="M1010.49 255.107C1011.88 255.107 1013 253.984 1013 252.598C1013 251.213 1011.88 250.09 1010.49 250.09C1009.11 250.09 1007.99 251.213 1007.99 252.598C1007.99 253.984 1009.11 255.107 1010.49 255.107Z" fill="#A43131"/>
<path d="M1010.49 272.631C1011.88 272.631 1013 271.508 1013 270.123C1013 268.737 1011.88 267.614 1010.49 267.614C1009.11 267.614 1007.99 268.737 1007.99 270.123C1007.99 271.508 1009.11 272.631 1010.49 272.631Z" fill="#A43131"/>
<path d="M1010.49 290.144C1011.88 290.144 1013 289.02 1013 287.635C1013 286.249 1011.88 285.126 1010.49 285.126C1009.11 285.126 1007.99 286.249 1007.99 287.635C1007.99 289.02 1009.11 290.144 1010.49 290.144Z" fill="#A43131"/>
<path d="M993.005 185.034C994.388 185.034 995.51 183.911 995.51 182.525C995.51 181.14 994.388 180.016 993.005 180.016C991.621 180.016 990.5 181.14 990.5 182.525C990.5 183.911 991.621 185.034 993.005 185.034Z" fill="#A43131"/>
<path d="M993.005 202.559C994.389 202.559 995.51 201.435 995.51 200.05C995.51 198.664 994.389 197.541 993.005 197.541C991.622 197.541 990.5 198.664 990.5 200.05C990.5 201.435 991.622 202.559 993.005 202.559Z" fill="#A43131"/>
<path d="M993.005 220.071C994.389 220.071 995.51 218.948 995.51 217.562C995.51 216.177 994.389 215.053 993.005 215.053C991.622 215.053 990.5 216.177 990.5 217.562C990.5 218.948 991.622 220.071 993.005 220.071Z" fill="#A43131"/>
<path d="M993.005 237.595C994.389 237.595 995.51 236.472 995.51 235.087C995.51 233.701 994.389 232.578 993.005 232.578C991.622 232.578 990.5 233.701 990.5 235.087C990.5 236.472 991.622 237.595 993.005 237.595Z" fill="#A43131"/>
<path d="M993.005 255.107C994.389 255.107 995.51 253.984 995.51 252.598C995.51 251.213 994.389 250.09 993.005 250.09C991.622 250.09 990.5 251.213 990.5 252.598C990.5 253.984 991.622 255.107 993.005 255.107Z" fill="#A43131"/>
<path d="M993.005 272.631C994.389 272.631 995.51 271.508 995.51 270.123C995.51 268.737 994.389 267.614 993.005 267.614C991.622 267.614 990.5 268.737 990.5 270.123C990.5 271.508 991.622 272.631 993.005 272.631Z" fill="#A43131"/>
<path d="M993.005 290.144C994.389 290.144 995.51 289.02 995.51 287.635C995.51 286.249 994.389 285.126 993.005 285.126C991.622 285.126 990.5 286.249 990.5 287.635C990.5 289.02 991.622 290.144 993.005 290.144Z" fill="#A43131"/>
<path d="M975.506 185.034C976.89 185.034 978.011 183.911 978.011 182.525C978.011 181.14 976.89 180.017 975.506 180.017C974.123 180.017 973.001 181.14 973.001 182.525C973.001 183.911 974.123 185.034 975.506 185.034Z" fill="#A43131"/>
<path d="M975.505 202.559C976.889 202.559 978.01 201.435 978.01 200.05C978.01 198.664 976.889 197.541 975.505 197.541C974.122 197.541 973 198.664 973 200.05C973 201.435 974.122 202.559 975.505 202.559Z" fill="#A43131"/>
<path d="M975.505 220.071C976.889 220.071 978.01 218.948 978.01 217.562C978.01 216.177 976.889 215.053 975.505 215.053C974.122 215.053 973 216.177 973 217.562C973 218.948 974.122 220.071 975.505 220.071Z" fill="#A43131"/>
<path d="M975.505 237.595C976.889 237.595 978.01 236.472 978.01 235.087C978.01 233.701 976.889 232.578 975.505 232.578C974.122 232.578 973 233.701 973 235.087C973 236.472 974.122 237.595 975.505 237.595Z" fill="#A43131"/>
<path d="M975.505 255.107C976.889 255.107 978.01 253.984 978.01 252.598C978.01 251.213 976.889 250.09 975.505 250.09C974.122 250.09 973 251.213 973 252.598C973 253.984 974.122 255.107 975.505 255.107Z" fill="#A43131"/>
<path d="M975.505 272.631C976.889 272.631 978.01 271.508 978.01 270.123C978.01 268.737 976.889 267.614 975.505 267.614C974.122 267.614 973 268.737 973 270.123C973 271.508 974.122 272.631 975.505 272.631Z" fill="#A43131"/>
<path d="M975.505 290.144C976.889 290.144 978.01 289.02 978.01 287.635C978.01 286.249 976.889 285.126 975.505 285.126C974.122 285.126 973 286.249 973 287.635C973 289.02 974.122 290.144 975.505 290.144Z" fill="#A43131"/>
</svg>
