<svg width="16" height="20" viewBox="0 0 16 20" fill="none" xmlns="http://www.w3.org/2000/svg">
<path d="M5.34131 7.06519H6.59131V15.5432H5.34131V7.06519Z" fill="#E33D3D"/>
<path d="M9.09155 7.06519H10.3416V15.5432H9.09155V7.06519Z" fill="#E33D3D"/>
<path d="M0.341309 2.82593V4.23894H1.59131V18.369C1.59131 18.7438 1.723 19.1032 1.95743 19.3682C2.19185 19.6332 2.50979 19.7821 2.84131 19.7821H12.8413C13.1728 19.7821 13.4908 19.6332 13.7252 19.3682C13.9596 19.1032 14.0913 18.7438 14.0913 18.369V4.23894H15.3413V2.82593H0.341309ZM2.84131 18.369V4.23894H12.8413V18.369H2.84131Z" fill="#E33D3D"/>
<path d="M5.34131 0H10.3413V1.41301H5.34131V0Z" fill="#E33D3D"/>
</svg>
