<svg width="20" height="26" viewBox="0 0 20 26" fill="none" xmlns="http://www.w3.org/2000/svg">
<path d="M6.41968 9.25928H8.02462V20.3704H6.41968V9.25928Z" fill="white"/>
<path d="M11.2346 9.25928H12.8396V20.3704H11.2346V9.25928Z" fill="white"/>
<path d="M0 3.70361V5.55547H1.60494V24.074C1.60494 24.5651 1.77403 25.0361 2.07501 25.3834C2.376 25.7307 2.78422 25.9258 3.20988 25.9258H16.0494C16.475 25.9258 16.8833 25.7307 17.1842 25.3834C17.4852 25.0361 17.6543 24.5651 17.6543 24.074V5.55547H19.2593V3.70361H0ZM3.20988 24.074V5.55547H16.0494V24.074H3.20988Z" fill="white"/>
<path d="M6.41968 0H12.8394V1.85185H6.41968V0Z" fill="white"/>
</svg>
