<svg width="642" height="104" viewBox="0 0 642 104" fill="none" xmlns="http://www.w3.org/2000/svg">
<path d="M0 69.9629H22.035C22.035 76.8106 26.3278 80.1445 31.1788 80.1445C35.6517 80.1445 39.9274 77.2037 39.9274 71.9642C39.9274 65.9499 33.8917 64.2089 26.5124 61.9954C15.3039 58.5503 1.00023 54.3036 1.00023 32.4812C1.00023 13.5996 12.2173 2.78662 30.4961 2.78662C49.0841 2.78662 59.743 14.5869 59.743 34.1055H38.3221C38.3221 28.0435 34.6688 25.1982 30.243 25.1982C26.4352 25.1982 22.782 27.2366 22.782 31.7115C22.782 37.1578 28.6245 38.9574 35.9265 41.2239C47.337 44.8653 62.2586 49.5792 62.2586 71.4813C62.2586 92.4224 49.2473 103.289 31.243 103.289C12.2646 103.262 0 90.8617 0 69.9629ZM131.549 56.385V100.921H110.943V59.3414C110.943 50.8165 108.518 46.4637 103.143 46.4637C96.9103 46.4637 93.0252 51.9366 93.0252 61.4276V100.921H72.4325V0.260254H93.0381V31.818C97.5537 27.2848 103.187 24.7958 109.003 24.7633C122.723 24.7739 131.549 37.2168 131.549 56.385Z" fill="#002135"/>
<path d="M382.506 103.342C358.898 103.342 341.297 81.7423 341.297 53.0667C341.297 24.2322 358.898 2.63809 382.506 2.63809C402.826 2.63809 418.567 19.2212 421.713 43.5119H400.073C397.412 33.681 390.714 27.3004 382.553 27.3004C371.578 27.3004 363.523 38.2141 363.523 53.0563C363.523 67.8981 371.578 78.6049 382.553 78.6049C391.141 78.6049 397.919 71.6723 400.089 61.0185H421.937C418.991 86.2278 403.159 103.336 382.506 103.336V103.342ZM427.662 63.9434C427.662 41.0169 441.696 24.54 461.197 24.54C480.631 24.54 494.73 40.9958 494.73 63.9434C494.73 86.7693 480.631 103.342 461.197 103.342C441.696 103.342 427.662 86.7904 427.662 63.9434ZM461.197 80.4575C468.708 80.4575 474.076 73.7214 474.076 63.9434C474.076 54.1656 468.688 47.424 461.197 47.424C453.706 47.424 448.321 54.1656 448.321 63.9434C448.321 73.7214 453.706 80.4575 461.197 80.4575ZM567.416 0.260254V100.921H552.17L550.23 95.4273C545.181 100.661 538.789 103.495 532.201 103.421C513.85 103.421 500.777 86.9236 500.777 63.9437C500.777 40.9642 513.85 24.5404 532.201 24.5404C537.447 24.4899 542.599 26.269 547.062 29.6735V0.260254H567.416ZM548.335 63.9597C548.335 54.2988 542.664 47.0316 534.946 47.0316C527.225 47.0316 521.559 54.2988 521.559 63.9597C521.559 73.6209 527.231 80.8825 534.946 80.8825C542.658 80.8825 548.335 73.5998 548.335 63.9437V63.9597ZM641.969 63.2427C641.958 65.4999 641.815 67.7532 641.54 69.9844H597.136C598.481 78.4777 602.841 82.8568 609.342 82.8568C614.156 82.8568 618.179 80.2506 620.158 75.919H640.66C636.449 92.7992 624.346 103.342 609.322 103.342C590.66 103.342 576.838 86.4771 576.838 63.8851C576.838 41.2135 590.55 24.54 609.322 24.54C628.602 24.54 641.947 41.5265 641.947 63.2427H641.969ZM597.5 55.8802H621.677C619.869 48.491 615.56 44.4992 609.342 44.4992C603.337 44.4992 599.16 48.5333 597.5 55.8802Z" fill="#00E75B"/>
<path d="M292.298 72.2141C292.659 74.2664 293.105 76.2951 293.632 78.2919C295.157 84.04 297.336 89.4913 300.103 94.4823C289.64 86.6788 280.195 76.9607 272.087 65.6583V45.7735C279.376 31.8964 289.06 20.1889 300.445 11.4925C298.822 13.6636 295.668 18.5365 294.908 25.655C294.686 27.7518 294.686 29.875 294.908 31.9718C306.242 16.3015 321.098 5.16932 337.577 0C331.569 8.72151 326.559 16.6468 322.553 23.2875C312.13 40.672 310.916 45.4549 311.062 50.1315C311.249 56.1669 313.666 60.6684 321.048 71.0462C329.138 82.4249 337.737 93.235 346.803 103.427C326.8 98.825 308.048 88.0953 292.264 72.2193L292.298 72.2141ZM269.331 28.3461C262.971 31.7398 257.1 36.3924 251.95 42.121C248.309 46.1926 245.081 49.7969 242.591 55.9225C239.749 62.8767 239.522 68.9811 239.251 78.7907C239.021 87.2331 239.506 95.6821 240.698 104C236.749 102.142 228.923 97.63 223.097 87.6079C213.258 70.6798 216.718 51.0869 217.86 44.6108C218.831 39.122 221.514 24.8957 231.902 13.7483C236.2 9.16205 241.202 5.69553 246.609 3.55638C244.841 5.80178 239.801 12.8087 239.475 23.1174C239.386 26.1419 239.7 29.164 240.406 32.0619C243.577 30.1274 246.933 28.7004 250.396 27.8153C256.659 26.2286 263.132 26.41 269.331 28.3461ZM191.691 47.2122C185.995 47.5519 180.886 49.3355 177.053 52.0374L178.5 53.8314H174.829C174.248 54.3705 173.7 54.9612 173.189 55.5994L175.739 58.7472H171.214C170.798 59.6267 170.483 60.5734 170.279 61.5604L173.76 64.0075L170.279 66.4546C170.485 67.4336 170.795 68.3745 171.202 69.2522H175.739L173.163 72.437C173.702 73.0933 174.276 73.7034 174.881 74.2633H178.744L177.224 76.153C181.028 78.7751 186.068 80.4846 191.653 80.8136C189.592 79.7018 187.678 78.2146 185.973 76.4026H181.899L183.981 73.8279C183.49 73.1006 183.048 72.3247 182.659 71.5083H178.929L181.504 68.3232C181.341 67.7009 181.216 67.0637 181.131 66.4175L177.697 64.029L181.131 61.6294C181.191 61.1836 181.272 60.7377 181.363 60.3023L178.933 57.2874H182.329C182.74 56.3153 183.226 55.3946 183.78 54.5376L181.899 52.2181H185.501C187.327 50.1384 189.419 48.447 191.691 47.2122ZM173.164 55.6254C173.164 55.6254 173.164 55.5936 173.189 55.5936L173.164 55.6254Z" fill="#002135"/>
<path d="M192.288 26.8818L190.184 32.604C185.036 27.3784 178.565 24.5596 171.905 24.6416C153.618 24.6416 140.542 40.9434 140.542 63.8487C140.542 86.8334 153.618 103.332 171.905 103.332C178.458 103.408 184.83 100.673 189.935 95.5923L191.695 100.826H207.656V26.8818H192.288ZM195.34 83.1019C194.323 83.2079 193.108 83.3036 191.717 83.3459C182.852 83.6298 174.07 81.1682 166.17 76.1852C161.238 73.026 156.746 68.9135 152.863 64.0026C156.744 59.0824 161.237 54.9605 166.17 51.7937C174.072 46.818 182.853 44.3622 191.717 44.6486C193.108 44.6486 194.323 44.7706 195.34 44.8767V83.1019Z" fill="#002135"/>
</svg>
