<svg width="27" height="27" viewBox="0 0 27 27" fill="none" xmlns="http://www.w3.org/2000/svg">
<path fill-rule="evenodd" clip-rule="evenodd" d="M13.625 0.5C12.5895 0.5 11.75 1.33947 11.75 2.375V11.75H2.375C1.33947 11.75 0.5 12.5895 0.5 13.625C0.5 14.6605 1.33947 15.5 2.375 15.5H11.75V24.875C11.75 25.9105 12.5895 26.75 13.625 26.75C14.6605 26.75 15.5 25.9105 15.5 24.875V15.5H24.875C25.9105 15.5 26.75 14.6605 26.75 13.625C26.75 12.5895 25.9105 11.75 24.875 11.75H15.5V2.375C15.5 1.33947 14.6605 0.5 13.625 0.5Z" fill="white"/>
</svg>
