<svg width="22" height="16" viewBox="0 0 22 16" fill="none" xmlns="http://www.w3.org/2000/svg">
<path d="M13.5907 5.74787C14.8835 6.90322 14.8835 8.7788 13.5907 9.93612C12.2979 11.0915 10.1992 11.0915 8.90422 9.93612C7.61144 8.78078 7.61144 6.90519 8.90422 5.74787C10.1992 4.59055 12.2968 4.59055 13.5907 5.74787Z" stroke="#00E75B" stroke-width="1.5" stroke-linecap="round" stroke-linejoin="round"/>
<path d="M1.31201 7.83952C1.31201 7.18933 1.47982 6.54605 1.8044 5.95308C3.47696 2.89749 7.17315 0.933105 11.248 0.933105C15.3229 0.933105 19.0191 2.89749 20.6916 5.95308C21.0162 6.54605 21.184 7.18933 21.184 7.83952C21.184 8.48971 21.0162 9.133 20.6916 9.72596C19.0191 12.7816 15.3229 14.7459 11.248 14.7459C7.17315 14.7459 3.47696 12.7816 1.8044 9.72596C1.47982 9.133 1.31201 8.48971 1.31201 7.83952V7.83952Z" stroke="#00E75B" stroke-width="1.5" stroke-linecap="round" stroke-linejoin="round"/>
</svg>
